HIERARCHY
ROOT Hips
{
	OFFSET	0.00	0.00	0.00
	CHANNELS 6 Xposition Yposition Zposition Zrotation Xrotation Yrotation
	JOINT Spine
	{
		OFFSET	 0.00	0.01	 0.00
		CHANNELS 3 Zrotation Xrotation Yrotation
		JOINT Spine1
		{
			OFFSET	 0.00	 2.45913012437421	 0.00
			CHANNELS 3 Zrotation Xrotation Yrotation
            JOINT Neck
            {
                OFFSET	 0.00	 2.48462964506057	 0.00
                CHANNELS 3 Zrotation Xrotation Yrotation
                JOINT Head
                {
                    OFFSET	 0.00	 0.927524780924562	 0.00
                    CHANNELS 3 Zrotation Xrotation Yrotation
                    End Site 
                    {
                        OFFSET	 0.00	 1.14999962169752	 0.00
                    }
                }
            }
			JOINT LeftShoulder
			{
				OFFSET	 0.00	 2.48462964506057	 0.00
				CHANNELS 3 Zrotation Xrotation Yrotation
				JOINT LeftUpArm
				{
					OFFSET	 0.00	 1.24881979654096	 0.00
					CHANNELS 3 Zrotation Xrotation Yrotation
					JOINT LeftForeArm
					{
						OFFSET	 0.00	2.59758046908119	 0.00
						CHANNELS 3 Zrotation Xrotation Yrotation
						JOINT LeftHand
						{
							OFFSET	 0.00	2.45542024364365	 0.00
							CHANNELS 3 Zrotation Xrotation Yrotation
							JOINT LeftHandThumb 
							{
								OFFSET	 0.00	0.00	 0.00
								CHANNELS 3 Zrotation Xrotation Yrotation
								End Site
								{
									OFFSET	 0.00	0.00	1.00000003353624
								}
							}
							JOINT L_Wrist_End 
							{
								OFFSET	 0.00	0.99999967115358	 0.00
								CHANNELS 3 Zrotation Xrotation Yrotation
								End Site 
								{
									OFFSET	 0.00	 0.00	 0.00
								}
							}
						}
					}
				}
			}
			JOINT RightShoulder
			{
				OFFSET	 0.00	 2.48462964506057	 0.00
				CHANNELS 3 Zrotation Xrotation Yrotation
				JOINT RightUpArm
				{
					OFFSET	 0.00	 1.24881979654096	 0.00
					CHANNELS 3 Zrotation Xrotation Yrotation
					JOINT RightForeArm
					{
						OFFSET	 0.00	2.59758046908119	 0.00
						CHANNELS 3 Zrotation Xrotation Yrotation
						JOINT RightHand
						{
							OFFSET	 0.00	2.45542024364365	 0.00
							CHANNELS 3 Zrotation Xrotation Yrotation
							JOINT RightHandThumb 
							{
								OFFSET	 0.00	0.00	 0.00
								CHANNELS 3 Zrotation Xrotation Yrotation
								End Site
								{
									OFFSET	 0.00	0.00	1.00000003353624
								}
							}
							JOINT R_Wrist_End 
							{
								OFFSET	 0.00	0.99999967115358	 0.00
								CHANNELS 3 Zrotation Xrotation Yrotation
								End Site 
								{
									OFFSET	 0.00	 0.00	 0.00
								}
							}
						}
					}
				}
			}
		}
	}
	JOINT LeftUpLeg
	{
		OFFSET	 1.2719394002717	 0.00	 0.00
		CHANNELS 3 Zrotation Xrotation Yrotation
		JOINT LeftLowLeg
		{
			OFFSET	 0.00	-4.3429100912261	 0.00
			CHANNELS 3 Zrotation Xrotation Yrotation
			JOINT LeftFoot
			{
				OFFSET	 0.00	-4.48767017425826	 0.00
				CHANNELS 3 Zrotation Xrotation Yrotation
				JOINT LeftToeBase
                {
                    OFFSET	 0.00	0.00	 1.51507020887566
                    CHANNELS 3 Zrotation Xrotation Yrotation
                    End Site 
                    {
                        OFFSET	 0.00	0.00	 0.75000010571191
                    }
                }
			}
		}
	}
	JOINT RightUpLeg
	{
		OFFSET	 -1.2719393604653	 0.00	 0.00
		CHANNELS 3 Zrotation Xrotation Yrotation
		JOINT RightLowLeg
		{
			OFFSET	 0.00	-4.3429100912261	 0.00
			CHANNELS 3 Zrotation Xrotation Yrotation
			JOINT RightFoot
			{
				OFFSET	 0.00	-4.48767017425826	 0.00
				CHANNELS 3 Zrotation Xrotation Yrotation
				JOINT RightToeBase
                {
                    OFFSET	 0.00	0.00	 1.51507020887566
                    CHANNELS 3 Zrotation Xrotation Yrotation
                    End Site 
                    {
                        OFFSET	 0.00	0.00	 0.749999965609858
                    }
                }   
			}
		}
	}
}
MOTION 
Frames:	18 
Frame Time: 0.02 
 -0.9546399688720704 -3.1413198852539064 10.5227001953125 -78.468 84.9494 76.5442 3.42059 -23.6812 -1.84182 4.12376 38.8325 -2.00744 -3.72554 20.5524 1.59185 26.6723 -70.2318 21.3199 -122.6447 2.959 -2.66833 -34.1005 7.66379 33.7722 0.0 32.4367 0.0 10.7642 -6.39198 -0.820848 0.0 0.0 0.0 0.0 0.0 0.0 118.3752 0.375667 -2.25006 37.4673 11.2094 -20.6821 0.0 27.7303 0.0 -4.98003 -1.00888 6.62008 0.0 0.0 0.0 0.0 0.0 0.0 5.42524 7.93778 18.8164 0.0 0.456247 0.0 -5.59129 10.65723 3.77926 0.0 -12.76208 0.0 8.34917 5.77044 10.9162 0.0 6.84907 0.0 17.9509 9.11096 -25.3217 0.0 -12.40292 0.0 
  -0.9548930358886719 -3.1414498901367187 10.5227001953125 -78.4173 84.9538 76.5051 3.46656 -23.6659 -1.7421 4.03718 38.8098 -1.97121 -3.66951 20.6825 1.55504 26.739 -70.2374 21.3399 -122.650604 2.86992 -2.61764 -34.1051 7.73307 33.4132 0.0 32.5704 0.0 10.8605 -6.37594 -0.951103 0.0 0.0 0.0 0.0 0.0 0.0 118.3758 0.301738 -2.18731 37.5241 11.0143 -21.2855 0.0 27.913 0.0 -5.20018 -0.880442 6.63051 0.0 0.0 0.0 0.0 0.0 0.0 5.43283 7.89934 18.6874 0.0 0.54715 0.0 -5.60058 10.60415 3.8994 0.0 -13.37243 0.0 8.33703 5.77856 10.6789 0.0 6.82794 0.0 17.8651 9.201799 -25.1513 0.0 -12.44503 0.0 
  -0.95472900390625 -3.1416000366210937 10.52280029296875 -78.3611 84.955 76.4366 3.54044 -23.6678 -1.61236 3.94679 38.8316 -1.93414 -3.65923 20.7496 1.53474 26.6876 -70.2027 21.2034 -122.6354 2.85087 -2.63761 -34.1519 7.72574 33.0858 0.0 32.5983 0.0 10.9427 -6.35561 -1.11902 0.0 0.0 0.0 0.0 0.0 0.0 118.394 0.240079 -2.14881 37.5672 10.9021 -21.6789 0.0 28.0007 0.0 -5.07404 -0.981047 6.72564 0.0 0.0 0.0 0.0 0.0 0.0 5.43723 7.87256 18.5954 0.0 0.625762 0.0 -5.57702 10.556829 4.06309 0.0 -13.77716 0.0 8.32676 5.78992 10.5349 0.0 6.80811 0.0 17.7842 9.27883 -25.0429 0.0 -12.46986 0.0 
  -0.954749984741211 -3.1415301513671876 10.52260009765625 -78.283 84.9622 76.325 3.65087 -23.6767 -1.42719 3.7889 38.8686 -1.9118 -3.59853 20.8125 1.4897 26.6564 -70.1742 21.1434 -122.5773 2.87224 -2.72253 -34.2266 7.64809 32.7342 0.0 32.542 0.0 10.9347 -6.41486 -1.18241 0.0 0.0 0.0 0.0 0.0 0.0 118.4171 0.254146 -2.13573 37.6549 10.7951 -22.0373 0.0 27.9439 0.0 -4.96619 -0.997482 6.70743 0.0 0.0 0.0 0.0 0.0 0.0 5.43078 7.85464 18.5539 0.0 0.694239 0.0 -5.61368 10.52242 4.1567 0.0 -14.217949 0.0 8.30103 5.81312 10.3196 0.0 6.75947 0.0 17.6873 9.38513 -24.8481 0.0 -12.51116 0.0 
  -0.9542489624023438 -3.141610107421875 10.5225 -78.0256 84.9531 76.0208 3.78911 -23.678 -1.22528 3.62108 38.9401 -1.91565 -3.54639 20.8501 1.45674 26.636 -70.1509 21.1232 -122.5092 2.87493 -2.77619 -34.3183 7.64452 32.3947 0.0 32.3541 0.0 10.9268 -6.44259 -1.22836 0.0 0.0 0.0 0.0 0.0 0.0 118.4885 0.278692 -2.12859 37.6965 10.7462 -22.3109 0.0 27.8177 0.0 -4.81107 -1.02422 6.44196 0.0 0.0 0.0 0.0 0.0 0.0 5.42782 7.87369 18.499 0.0 0.735714 0.0 -5.59517 10.4743 4.31907 0.0 -14.509485 0.0 8.30296 5.82413 10.4206 0.0 6.79512 0.0 17.6945 9.35555 -24.8921 0.0 -12.52137 0.0 
  -0.953595962524414 -3.1417001342773436 10.52239990234375 -77.7299 84.9383 75.6757 3.92929 -23.6804 -1.03537 3.46745 39.0469 -1.93662 -3.54468 20.8227 1.47572 26.573 -70.0772 21.0505 -122.4607 2.87945 -2.82077 -34.395 7.67377 32.0918 0.0 32.078 0.0 10.8734 -6.48036 -1.25922 0.0 0.0 0.0 0.0 0.0 0.0 118.5244 0.313416 -2.13092 37.797 10.7707 -22.4627 0.0 27.5587 0.0 -4.67413 -1.03424 6.50197 0.0 0.0 0.0 0.0 0.0 0.0 5.42576 7.90174 18.5401 0.0 0.760224 0.0 -5.61228 10.445869 4.36761 0.0 -14.655911 0.0 8.31122 5.84281 10.5874 0.0 6.82531 0.0 17.7009 9.33688 -24.9967 0.0 -12.565741 0.0 
  -0.9527570343017578 -3.1418798828125 10.52219970703125 -77.4527 84.931 75.3423 4.05974 -23.6887 -0.854986 3.32644 39.1643 -1.95021 -3.56081 20.7504 1.49927 26.4261 -69.9709 20.88 -122.4252 2.89836 -2.82875 -34.4486 7.73025 31.903 0.0 31.7647 0.0 10.8499 -6.55123 -1.25589 0.0 0.0 0.0 0.0 0.0 0.0 118.5323 0.338457 -2.1213 37.9412 10.8527 -22.5363 0.0 27.1824 0.0 -4.5195 -1.04461 6.31433 0.0 0.0 0.0 0.0 0.0 0.0 5.41511 7.93472 18.5717 0.0 0.777737 0.0 -5.61006 10.42453 4.40764 0.0 -14.78689 0.0 8.31461 5.84622 10.8287 0.0 6.88459 0.0 17.7826 9.23461 -25.1386 0.0 -12.54692 0.0 
  -0.9522440338134766 -3.1417999267578125 10.52199951171875 -77.2663 84.9228 75.0936 4.18624 -23.6997 -0.675791 3.17434 39.2668 -1.96606 -3.55298 20.6889 1.50887 26.2901 -69.8751 20.7671 -122.372604 2.93163 -2.81458 -34.5005 7.76457 31.7158 0.0 31.4108 0.0 10.7909 -6.6004 -1.21944 0.0 0.0 0.0 0.0 0.0 0.0 118.5952 0.384833 -2.13837 38.0111 10.9064 -22.5155 0.0 26.8461 0.0 -4.39446 -0.945373 6.21036 0.0 0.0 0.0 0.0 0.0 0.0 5.4107 7.95141 18.5339 0.0 0.815972 0.0 -5.63817 10.38365 4.51691 0.0 -14.968263 0.0 8.31785 5.84451 10.9696 0.0 6.93955 0.0 17.688 9.2998295 -25.2154 0.0 -12.73307 0.0 
  -0.951886978149414 -3.140249938964844 10.5218994140625 -77.3292 84.9098 75.0314 4.32726 -23.6857 -0.47862 3.03786 39.3347 -1.95706 -3.57503 20.6296 1.54594 26.2299 -69.8068 20.7124 -122.341995 2.9775 -2.8551 -34.5373 7.74907 31.6062 0.0 31.0448 0.0 10.631 -6.67307 -1.28705 0.0 0.0 0.0 0.0 0.0 0.0 118.6275 0.435702 -2.14378 38.0994 10.9667 -22.4657 0.0 26.5499 0.0 -4.2323 -1.16341 6.37236 0.0 0.0 0.0 0.0 0.0 0.0 5.41202 7.94533 18.5395 0.0 0.875427 0.0 -5.68759 10.32259 4.67842 0.0 -15.191845 0.0 8.28166 5.85516 10.3868 0.0 6.8606 0.0 17.4253 9.61702 -24.6705 0.0 -12.83282 0.0 
  -0.9504850006103516 -3.1422799682617186 10.522099609375 -76.944 84.9002 74.6541 4.45713 -23.6827 -0.31617 2.85375 39.3836 -2.02613 -3.48091 20.6476 1.52083 26.1972 -69.7309 20.7704 -122.2764 2.98936 -2.82598 -34.5571 7.74972 31.5442 0.0 30.668 0.0 10.4985 -6.72943 -1.09408 0.0 0.0 0.0 0.0 0.0 0.0 118.7014 0.477369 -2.16063 38.1877 10.9979 -22.3672 0.0 26.2665 0.0 -4.17443 -1.2553 6.12641 0.0 0.0 0.0 0.0 0.0 0.0 5.40859 7.96917 18.4705 0.0 0.923518 0.0 -5.67714 10.282209 4.76652 0.0 -15.213677 0.0 8.34579 5.81609 11.5869 0.0 7.09647 0.0 17.9139 9.03985 -25.5989 0.0 -12.63969 0.0 
  -0.9495230102539063 -3.142030029296875 10.52219970703125 -76.9801 84.8949 74.6208 4.60929 -23.6778 -0.10561 2.65884 39.4282 -2.05341 -3.37189 20.5904 1.47143 26.1631 -69.6871 20.8072 -122.1932 3.02672 -2.82696 -34.591 7.71269 31.4535 0.0 30.324 0.0 10.3323 -6.84399 -1.0001 0.0 0.0 0.0 0.0 0.0 0.0 118.7716 0.51065 -2.16095 38.2671 11.0435 -22.244 0.0 26.0038 0.0 -4.06734 -1.38892 5.79021 0.0 0.0 0.0 0.0 0.0 0.0 5.40181 7.97027 18.5614 0.0 0.944166 0.0 -5.66844 10.2791 4.7259 0.0 -15.172621 0.0 8.33945 5.80312 11.6174 0.0 7.11819 0.0 17.8615 9.10371 -25.5722 0.0 -12.71723 0.0 
  -0.9489320373535156 -3.141940002441406 10.52239990234375 -77.0049 84.8909 74.5851 4.72261 -23.6714 0.0573886 2.50123 39.4767 -2.07537 -3.2668 20.5216 1.41999 26.1461 -69.6635 20.857 -122.1522 3.03804 -2.81786 -34.568 7.68892 31.4717 0.0 30.0313 0.0 10.2105 -6.91802 -0.960968 0.0 0.0 0.0 0.0 0.0 0.0 118.8396 0.524843 -2.16215 38.3 11.1061 -22.1609 0.0 25.7961 0.0 -4.04612 -1.33971 5.90148 0.0 0.0 0.0 0.0 0.0 0.0 5.39896 7.96918 18.6395 0.0 0.974838 0.0 -5.66257 10.25753 4.73136 0.0 -14.991019 0.0 8.3285 5.79641 11.5207 0.0 7.11845 0.0 17.8162 9.171909 -25.4547 0.0 -12.71917 0.0 
  -0.94839599609375 -3.141809997558594 10.5227001953125 -77.0854 84.883 74.6113 4.7817 -23.6675 0.143794 2.42718 39.5233 -2.08015 -3.23305 20.4249 1.40749 26.071 -69.6097 20.7808 -122.0978 3.0489 -2.80433 -34.648 7.6651 31.3738 0.0 29.6892 0.0 10.0613 -6.92162 -0.79095 0.0 0.0 0.0 0.0 0.0 0.0 118.8561 0.529717 -2.16524 38.3136 11.1541 -22.1125 0.0 25.7019 0.0 -4.05399 -1.42989 5.98354 0.0 0.0 0.0 0.0 0.0 0.0 5.39953 7.97453 18.7104 0.0 0.975962 0.0 -5.6712 10.266439 4.70719 0.0 -14.792623 0.0 8.32224 5.77949 11.4318 0.0 7.12448 0.0 17.8488 9.19174 -25.3333 0.0 -12.68668 0.0 
  -0.9480220031738281 -3.1419500732421874 10.523399658203125 -77.1291 84.8739 74.6076 4.81132 -23.6681 0.191699 2.38381 39.5853 -2.08378 -3.21306 20.3359 1.41537 26.0438 -69.558 20.7325 -122.0775 3.04682 -2.812 -34.6946 7.61607 31.3029 0.0 29.4327 0.0 9.94126 -6.9713 -0.769132 0.0 0.0 0.0 0.0 0.0 0.0 118.8755 0.542052 -2.16847 38.2767 11.1992 -22.0175 0.0 25.6927 0.0 -4.04725 -1.46115 5.94689 0.0 0.0 0.0 0.0 0.0 0.0 5.4017 7.99051 18.8295 0.0 0.965218 0.0 -5.67254 10.31211 4.61492 0.0 -14.509147 0.0 8.31827 5.76898 11.3352 0.0 7.12732 0.0 17.8497 9.26944 -25.2304 0.0 -12.636499 0.0 
  -0.9473470306396484 -3.1420001220703124 10.5247998046875 -77.1233 84.85 74.5728 4.84001 -23.6724 0.220265 2.36615 39.6702 -2.10029 -3.17264 20.2156 1.39781 25.9778 -69.5151 20.6707 -122.070496 3.03849 -2.82329 -34.7145 7.5751 31.2914 0.0 29.2156 0.0 9.86104 -6.99813 -0.804307 0.0 0.0 0.0 0.0 0.0 0.0 118.8912 0.554492 -2.16593 38.214 11.2421 -21.9444 0.0 25.7471 0.0 -4.15145 -1.39593 5.88124 0.0 0.0 0.0 0.0 0.0 0.0 5.40449 8.02897 18.9174 0.0 0.892376 0.0 -5.64498 10.39625 4.56646 0.0 -13.87719 0.0 8.33046 5.76038 11.3268 0.0 7.12945 0.0 17.942 9.29394 -25.2158 0.0 -12.52046 0.0 
  -0.9469249725341797 -3.1416000366210937 10.527099609375 -77.0681 84.8291 74.5071 4.84477 -23.6683 0.224294 2.35842 39.7628 -2.11771 -3.09292 20.0831 1.35267 25.916 -69.4885 20.6527 -122.0729 3.03713 -2.84455 -34.7131 7.52945 31.3148 0.0 28.9986 0.0 9.78831 -6.9183 -0.940824 0.0 0.0 0.0 0.0 0.0 0.0 118.9099 0.558719 -2.1538 38.1332 11.3031 -21.8629 0.0 25.8221 0.0 -4.06802 -1.37937 5.91587 0.0 0.0 0.0 0.0 0.0 0.0 5.40617 8.05574 18.9447 0.0 0.822769 0.0 -5.60972 10.50845 4.54925 0.0 -13.13735 0.0 8.34528 5.75562 11.353 0.0 7.13134 0.0 17.9405 9.480949 -25.2753 0.0 -12.68159 0.0 
  -0.946511001586914 -3.1405300903320312 10.5293994140625 -77.0321 84.8061 74.4945 4.81229 -23.6542 0.161508 2.4034 39.8253 -2.15017 -3.06923 19.9962 1.34323 25.8604 -69.4546 20.6064 -122.1334 3.01392 -2.8276 -34.6594 7.51475 31.3558 0.0 28.9225 0.0 9.83813 -6.99673 -1.02109 0.0 0.0 0.0 0.0 0.0 0.0 118.8927 0.586018 -2.14591 38.0787 11.3332 -21.8225 0.0 25.9116 0.0 -4.09613 -1.41647 6.16154 0.0 0.0 0.0 0.0 0.0 0.0 5.42208 8.05355 18.889 0.0 0.794654 0.0 -5.57495 10.59042 4.57499 0.0 -12.51622 0.0 8.36064 5.75744 11.3527 0.0 7.10788 0.0 17.9998 9.57508 -25.3155 0.0 -12.67137 0.0 
  -0.945863037109375 -3.1364898681640625 10.533499755859374 -77.0695 84.765 74.5724 4.68892 -23.6011 -0.0224662 2.58386 39.9015 -2.15212 -3.06597 19.9204 1.32909 25.7784 -69.435 20.5213 -122.1546 3.05065 -2.92998 -34.8023 7.40106 31.2886 0.0 28.6803 0.0 9.77295 -6.8864 -0.875395 0.0 0.0 0.0 0.0 0.0 0.0 118.8022 0.612005 -2.12139 38.0017 11.4175 -21.7048 0.0 26.0171 0.0 -4.28875 -1.31924 6.18126 0.0 0.0 0.0 0.0 0.0 0.0 5.45294 8.04261 18.8542 0.0 0.729176 0.0 -5.56277 10.74648 4.60741 0.0 -11.937571 0.0 8.39497 5.73726 11.4006 0.0 7.07437 0.0 18.1614 9.715401 -25.4264 0.0 -12.61286 0.0 
